<?xml version="1.0" encoding="UTF-8"?>
<svg width="41px" height="40px" viewBox="0 0 41 40" version="1.1" xmlns="http://www.w3.org/2000/svg" xmlns:xlink="http://www.w3.org/1999/xlink">
    <!-- Generator: Sketch 57.1 (83088) - https://sketch.com -->
    <title>Spotify-black</title>
    <desc>Created with Sketch.</desc>
    <g id="Page-1" stroke="none" stroke-width="1" fill="#FFFFFF" fill-rule="evenodd">
        <g id="Alesso-Home-Mobile" transform="translate(-357.000000, -993.000000)" fill="#FFFFFF">
            <g id="Social-Icons" transform="translate(135.000000, 993.000000)">
                <g id="Spotify/Black" transform="translate(222.000000, 0.000000)">
                    <g id="Spotify">
                        <path d="M32.2452,17.8 C25.7556,14 14.9058,13.6 8.7204,15.5 C7.7064,15.8 6.6924,15.2 6.3882,14.3 C6.084,13.3 6.6924,12.3 7.605,12 C14.8044,9.9 26.6682,10.3 34.1718,14.7 C35.0844,15.2 35.3886,16.4 34.8816,17.3 C34.3746,18 33.1578,18.3 32.2452,17.8 M32.0424,23.4 C31.5354,24.1 30.6228,24.4 29.913,23.9 C24.4374,20.6 16.1226,19.6 9.7344,21.6 C8.9232,21.8 8.0106,21.4 7.8078,20.6 C7.605,19.8 8.0106,18.9 8.8218,18.7 C16.224,16.5 25.35,17.6 31.6368,21.4 C32.2452,21.7 32.5494,22.7 32.0424,23.4 M29.6088,28.9 C29.2032,29.5 28.4934,29.7 27.885,29.3 C23.1192,26.4 17.1366,25.8 10.0386,27.4 C9.3288,27.6 8.7204,27.1 8.5176,26.5 C8.3148,25.8 8.8218,25.2 9.4302,25 C17.1366,23.3 23.829,24 29.1018,27.2 C29.8116,27.5 29.913,28.3 29.6088,28.9 M20.28,0 C9.126,0 0,9 0,20 C0,31 9.126,40 20.28,40 C31.434,40 40.56,31 40.56,20 C40.56,9 31.5354,0 20.28,0"></path>
                    </g>
                </g>
            </g>
        </g>
    </g>
</svg>