<?xml version="1.0" encoding="UTF-8"?>
<svg width="40px" height="40px" viewBox="0 0 40 40" version="1.1" xmlns="http://www.w3.org/2000/svg" xmlns:xlink="http://www.w3.org/1999/xlink">
    <!-- Generator: Sketch 57.1 (83088) - https://sketch.com -->
    <title>Instagram-black</title>
    <desc>Created with Sketch.</desc>
    <g id="Page-1" stroke="none" stroke-width="1" fill="#FFFFFF" fill-rule="evenodd">
        <g id="Alesso-Home-Mobile" transform="translate(-135.000000, -993.000000)" fill="#FFFFFF">
            <g id="Social-Icons" transform="translate(135.000000, 993.000000)">
                <path d="M21.3975134,0.000638963344 C25.5709536,0.00492639556 26.3112002,0.0320773031 28.2459744,0.12035543 C30.3747412,0.217449553 31.8286126,0.555572095 33.10076,1.05001379 C34.4159368,1.56104803 35.5312886,2.24491457 36.6432267,3.35677327 C37.7550854,4.46871136 38.438952,5.58406323 38.9500656,6.89924004 C39.4444279,8.1713874 39.7825504,9.62525876 39.8796446,11.7540256 C39.9769769,13.8872382 40,14.5683261 40,20.0000397 C40,25.4316739 39.9769769,26.1127618 39.8796446,28.2459744 C39.7825504,30.3747412 39.4444279,31.8286126 38.9500656,33.10076 C38.438952,34.4159368 37.7550854,35.5312886 36.6432267,36.6432267 C35.5312886,37.7550854 34.4159368,38.438952 33.10076,38.9500656 C31.8286126,39.4444279 30.3747412,39.7825504 28.2459744,39.8796446 C26.1127618,39.9769769 25.4316739,40 20.0000397,40 C14.5683261,40 13.8872382,39.9769769 11.7540256,39.8796446 C9.62525876,39.7825504 8.1713874,39.4444279 6.89924004,38.9500656 C5.58406323,38.438952 4.46871136,37.7550854 3.35677327,36.6432267 C2.24491457,35.5312886 1.56104803,34.4159368 1.05001379,33.10076 C0.555572095,31.8286126 0.217449553,30.3747412 0.12035543,28.2459744 C0.0320773031,26.3112002 0.00492639556,25.5709536 0.000638963344,21.3975134 L0.000638963344,18.6025458 C0.00492639556,14.4290464 0.0320773031,13.6887998 0.12035543,11.7540256 C0.217449553,9.62525876 0.555572095,8.1713874 1.05001379,6.89924004 C1.56104803,5.58406323 2.24491457,4.46871136 3.35677327,3.35677327 C4.46871136,2.24491457 5.58406323,1.56104803 6.89924004,1.05001379 C8.1713874,0.555572095 9.62525876,0.217449553 11.7540256,0.12035543 C13.6301703,0.0347523978 14.3830861,0.00662803662 18.232466,0.00109277943 L18.6025458,0.000638963344 L21.3975134,0.000638963344 Z M21.0745619,3.60392966 L18.9255017,3.60392966 C14.5618826,3.60689874 13.8765659,3.63087335 11.9182837,3.72022126 C9.96830349,3.8091382 8.90931861,4.13495527 8.20457247,4.40885121 C7.27102399,4.77166408 6.60478206,5.20505477 5.90495811,5.90495811 C5.20505477,6.60478206 4.77166408,7.27102399 4.40885121,8.20457247 C4.13495527,8.90931861 3.8091382,9.96830349 3.72022126,11.9182837 C3.63087335,13.8765659 3.60689874,14.5618826 3.60392966,18.9255017 L3.60392966,21.0745619 C3.60689874,25.4381174 3.63087335,26.1234341 3.72022126,28.0817163 C3.8091382,30.0316965 4.13495527,31.0906814 4.40885121,31.7954275 C4.77166408,32.728976 5.20513416,33.3952179 5.90495811,34.0950419 C6.60478206,34.7949452 7.27102399,35.2283359 8.20457247,35.5911488 C8.90931861,35.8650447 9.96830349,36.1908618 11.9182837,36.2797787 C13.8763448,36.3691267 14.5615087,36.3931013 18.925425,36.3960703 L21.0746397,36.3960703 C25.4385018,36.3931013 26.1237289,36.3691267 28.0817163,36.2797787 C30.0316965,36.1908618 31.0906814,35.8650447 31.7954275,35.5911488 C32.728976,35.2283359 33.3952179,34.7949452 34.0950419,34.0950419 C34.7949452,33.3952179 35.2283359,32.728976 35.5911488,31.7954275 C35.8650447,31.0906814 36.1908618,30.0316965 36.2797787,28.0817163 C36.3691267,26.1234341 36.3931013,25.4381174 36.3960703,21.0745619 L36.3960703,18.9255017 C36.3931013,14.5618826 36.3691267,13.8765659 36.2797787,11.9182837 C36.1908618,9.96830349 35.8650447,8.90931861 35.5911488,8.20457247 C35.2283359,7.27102399 34.7949452,6.60478206 34.0950419,5.90495811 C33.3952179,5.20505477 32.728976,4.77166408 31.7954275,4.40885121 C31.0906814,4.13495527 30.0316965,3.8091382 28.0817163,3.72022126 C26.1234341,3.63087335 25.4381174,3.60689874 21.0745619,3.60392966 Z M20.0000397,9.72973617 C25.6721466,9.72973617 30.2702638,14.3278534 30.2702638,20.0000397 C30.2702638,25.6721466 25.6721466,30.2702638 20.0000397,30.2702638 C14.3278534,30.2702638 9.72973617,25.6721466 9.72973617,20.0000397 C9.72973617,14.3278534 14.3278534,9.72973617 20.0000397,9.72973617 Z M20.0000397,13.3333333 C16.3180845,13.3333333 13.3333333,16.3180845 13.3333333,20.0000397 C13.3333333,23.6819155 16.3180845,26.6666667 20.0000397,26.6666667 C23.6819155,26.6666667 26.6666667,23.6819155 26.6666667,20.0000397 C26.6666667,16.3180845 23.6819155,13.3333333 20.0000397,13.3333333 Z M30.6760268,6.92393037 C32.0015243,6.92393037 33.0760696,7.99847571 33.0760696,9.32397324 C33.0760696,10.6494708 32.0015243,11.7239367 30.6760268,11.7239367 C29.3506086,11.7239367 28.2760633,10.6494708 28.2760633,9.32397324 C28.2760633,7.99847571 29.3506086,6.92393037 30.6760268,6.92393037 Z" id="Instagram"></path>
            </g>
        </g>
    </g>
</svg>