<?xml version="1.0" encoding="UTF-8"?>
<svg width="41px" height="29px" viewBox="0 0 41 29" version="1.1" xmlns="http://www.w3.org/2000/svg" xmlns:xlink="http://www.w3.org/1999/xlink">
    <!-- Generator: Sketch 57.1 (83088) - https://sketch.com -->
    <title>Youtube-black</title>
    <desc>Created with Sketch.</desc>
    <g id="Page-1" stroke="none" stroke-width="1" fill="#FFFFFF" fill-rule="evenodd">
        <g id="Alesso-Home-Mobile" transform="translate(-281.000000, -999.000000)" fill="#FFFFFF">
            <g id="Social-Icons" transform="translate(135.000000, 993.000000)">
                <g id="Youtube/Black" transform="translate(146.000000, 6.000000)">
                    <g id="Youtube">
                        <path d="M16.09218,19.3915967 L16.0909125,8.07311799 L27.0497175,13.7518698 L16.09218,19.3915967 Z M40.1544,6.11180225 C40.1544,6.11180225 39.7576725,3.33599917 38.54214,2.11363872 C36.9995925,0.508582515 35.2707225,0.501029309 34.478535,0.407873106 C28.80267,0 20.2888725,0 20.2888725,0 L20.2711275,0 C20.2711275,0 11.75733,0 6.081465,0.407873106 C5.28801,0.501029309 3.5604075,0.508582515 2.0165925,2.11363872 C0.80106,3.33599917 0.4056,6.11180225 0.4056,6.11180225 C0.4056,6.11180225 0,9.37226937 0,12.6314776 L0,15.6880082 C0,18.9484753 0.4056,22.2076835 0.4056,22.2076835 C0.4056,22.2076835 0.80106,24.9834866 2.0165925,26.2058471 C3.5604075,27.8109033 5.58714,27.7605486 6.4896,27.927978 C9.7344,28.2376594 20.28,28.3333333 20.28,28.3333333 C20.28,28.3333333 28.80267,28.3207447 34.478535,27.9128716 C35.2707225,27.8184565 36.9995925,27.8109033 38.54214,26.2058471 C39.7576725,24.9834866 40.1544,22.2076835 40.1544,22.2076835 C40.1544,22.2076835 40.56,18.9484753 40.56,15.6880082 L40.56,12.6314776 C40.56,9.37226937 40.1544,6.11180225 40.1544,6.11180225 L40.1544,6.11180225 Z"></path>
                    </g>
                </g>
            </g>
        </g>
    </g>
</svg>